{
	"asset":{
		"generator":"Khronos glTF Blender I/O v4.1.63",
		"version":"2.0"
	},
	"extensionsUsed":[
		"KHR_materials_unlit"
	],
	"scene":0,
	"scenes":[
		{
			"name":"Scene",
			"nodes":[
				3,
				4
			]
		}
	],
	"nodes":[
		{
			"name":"Armature",
			"rotation":[
				-0.70710688829422,
				0,
				0,
				0.7071066498756409
			]
		},
		{
			"children":[
				0
			],
			"name":"RootNode"
		},
		{
			"children":[
				1
			],
			"name":"c62eb61ce9ff4e1c80bf2a1c6ee716f9.fbx",
			"rotation":[
				0.70710688829422,
				0,
				0,
				0.7071066498756409
			]
		},
		{
			"children":[
				2
			],
			"name":"Sketchfab_model",
			"rotation":[
				-0.70710688829422,
				0,
				0,
				0.7071066498756409
			]
		},
		{
			"mesh":0,
			"name":"Object_519",
			"rotation":[
				-0.7071068286895752,
				0,
				0,
				0.7071068286895752
			],
			"translation":[
				0,
				-0.019355855882167816,
				0
			]
		}
	],
	"materials":[
		{
			"doubleSided":true,
			"extensions":{
				"KHR_materials_unlit":{}
			},
			"name":"material_5",
			"pbrMetallicRoughness":{
				"metallicFactor":0,
				"roughnessFactor":0.9
			}
		}
	],
	"meshes":[
		{
			"name":"5",
			"primitives":[
				{
					"attributes":{
						"POSITION":0,
						"NORMAL":1,
						"TEXCOORD_0":2,
						"TEXCOORD_1":3
					},
					"indices":4,
					"material":0
				}
			]
		}
	],
	"accessors":[
		{
			"bufferView":0,
			"componentType":5126,
			"count":2934,
			"max":[
				0.07844303548336029,
				0.11061573028564453,
				0.0927257165312767
			],
			"min":[
				-0.07844303548336029,
				-0.05983567237854004,
				-0.011370359919965267
			],
			"type":"VEC3"
		},
		{
			"bufferView":1,
			"componentType":5126,
			"count":2934,
			"type":"VEC3"
		},
		{
			"bufferView":2,
			"componentType":5126,
			"count":2934,
			"type":"VEC2"
		},
		{
			"bufferView":3,
			"componentType":5126,
			"count":2934,
			"type":"VEC2"
		},
		{
			"bufferView":4,
			"componentType":5123,
			"count":12246,
			"type":"SCALAR"
		}
	],
	"bufferViews":[
		{
			"buffer":0,
			"byteLength":35208,
			"byteOffset":0,
			"target":34962
		},
		{
			"buffer":0,
			"byteLength":35208,
			"byteOffset":35208,
			"target":34962
		},
		{
			"buffer":0,
			"byteLength":23472,
			"byteOffset":70416,
			"target":34962
		},
		{
			"buffer":0,
			"byteLength":23472,
			"byteOffset":93888,
			"target":34962
		},
		{
			"buffer":0,
			"byteLength":24492,
			"byteOffset":117360,
			"target":34963
		}
	],
	"buffers":[
		{
			"byteLength":141852,
			"uri":"star_rail_fu_xuan_face_only.bin"
		}
	]
}
